HIERARCHY
ROOT Hips
{
 OFFSET 0.000000 0.000000 0.000000
 CHANNELS 6 Xposition Yposition Zposition Yrotation Xrotation Zrotation
 JOINT Chest
 {
  OFFSET 0.000000 9.585900 0.002600
  CHANNELS 3 Yrotation Xrotation Zrotation
  JOINT Chest2
  {
   OFFSET 0.000000 9.601200 -0.005300
   CHANNELS 3 Yrotation Xrotation Zrotation
   JOINT Chest3
   {
    OFFSET 0.000000 9.561800 0.000000
    CHANNELS 3 Yrotation Xrotation Zrotation
    JOINT Chest4
    {
     OFFSET 0.000000 9.552100 0.000000
     CHANNELS 3 Yrotation Xrotation Zrotation
     JOINT Neck
     {
      OFFSET 0.000000 14.453000 0.000000
      CHANNELS 3 Yrotation Xrotation Zrotation
      JOINT Head
      {
       OFFSET 0.000000 8.936500 -0.011300
       CHANNELS 3 Yrotation Xrotation Zrotation
       End Site
       {
        OFFSET 0.000000 17.073600 -0.006000
       }
      }
     }
     JOINT RightCollar
     {
      OFFSET -2.921100 9.558500 0.000000
      CHANNELS 3 Yrotation Xrotation Zrotation
      JOINT RightShoulder
      {
       OFFSET -13.519700 0.000000 0.000000
       CHANNELS 3 Yrotation Xrotation Zrotation
       JOINT RightElbow
       {
        OFFSET 0.000000 -29.696600 0.000000
        CHANNELS 3 Yrotation Xrotation Zrotation
        JOINT RightWrist
        {
         OFFSET 0.000000 -24.004700 0.000000
         CHANNELS 3 Yrotation Xrotation Zrotation
         End Site
         {
          OFFSET 0.000000 -17.728500 0.000000
         }
        }
       }
      }
     }
     JOINT LeftCollar
     {
      OFFSET 2.921100 9.558500 0.000000
      CHANNELS 3 Yrotation Xrotation Zrotation
      JOINT LeftShoulder
      {
       OFFSET 13.519700 0.000000 0.000000
       CHANNELS 3 Yrotation Xrotation Zrotation
       JOINT LeftElbow
       {
        OFFSET 0.000000 -29.696600 0.000000
        CHANNELS 3 Yrotation Xrotation Zrotation
        JOINT LeftWrist
        {
         OFFSET 0.000000 -24.004700 0.000000
         CHANNELS 3 Yrotation Xrotation Zrotation
         End Site
         {
          OFFSET 0.000000 -17.728500 0.000000
         }
        }
       }
      }
     }
    }
   }
  }
 }
 JOINT RightHip
 {
  OFFSET -7.771700 -0.012900 -0.001300
  CHANNELS 3 Yrotation Xrotation Zrotation
  JOINT RightKnee
  {
   OFFSET 0.000000 -40.869800 0.001200
   CHANNELS 3 Yrotation Xrotation Zrotation
   JOINT RightAnkle
   {
    OFFSET 0.000000 -39.717900 0.002100
    CHANNELS 3 Yrotation Xrotation Zrotation
    JOINT RightToe
    {
     OFFSET 0.000000 -4.965400 11.033500
     CHANNELS 3 Yrotation Xrotation Zrotation
     End Site
     {
      OFFSET 0.000000 -1.423100 5.872300
     }
    }
   }
  }
 }
 JOINT LeftHip
 {
  OFFSET 7.771700 -0.012900 -0.001300
  CHANNELS 3 Yrotation Xrotation Zrotation
  JOINT LeftKnee
  {
   OFFSET 0.000000 -40.869800 0.001200
   CHANNELS 3 Yrotation Xrotation Zrotation
   JOINT LeftAnkle
   {
    OFFSET 0.000000 -39.717900 0.002100
    CHANNELS 3 Yrotation Xrotation Zrotation
    JOINT LeftToe
    {
     OFFSET 0.000000 -4.965400 11.033500
     CHANNELS 3 Yrotation Xrotation Zrotation
     End Site
     {
      OFFSET 0.000000 -1.423100 5.872300
     }
    }
   }
  }
 }
}
MOTION
Frames: 11
Frame Time: 0.008333
-56.665400 61.873422 15.009819 174.798649 -49.706109 -0.889406 4.655475 26.901783 1.392648 0.717690 4.663945 0.097694 1.153230 7.384570 0.180074 3.614233 21.917674 1.024036 1.141528 18.125042 3.533654 0.924675 -2.121127 6.131921 5.995123 7.237447 5.886174 1.904940 -12.845187 -13.833862 -109.707446 -66.040783 138.856394 13.577358 14.809942 -9.245075 -12.036403 4.673034 -1.833302 -5.214082 -12.640481 18.524455 85.095473 -71.507810 -114.601493 11.126442 -0.152736 1.504513 -0.293469 -17.717756 -2.805616 -3.892012 63.892177 -6.864487 1.320275 -6.684883 7.394217 0.016503 -0.119211 -0.000091 -3.146666 -15.318403 6.701732 25.436820 75.843919 26.855838 0.670920 -10.039746 -5.020046 0.021126 0.128231 0.012467
-56.665768 61.873755 15.009797 174.800581 -49.706548 -0.892051 4.640330 26.899414 1.391450 0.728186 4.666628 0.094114 1.150411 7.384623 0.180978 3.607133 21.917691 1.027467 1.140355 18.124241 3.522357 0.931559 -2.120423 6.125263 6.008229 7.223723 5.870368 1.901177 -12.834050 -13.827144 -109.705747 -66.031035 138.858737 13.577074 14.817654 -9.241968 -12.033355 4.668255 -1.838489 -5.212618 -12.638775 18.528843 85.100738 -71.496563 -114.601391 11.126478 -0.147464 1.507765 -0.294004 -17.715972 -2.805282 -3.886256 63.890223 -6.857823 1.320179 -6.681050 7.395985 0.016317 -0.119018 -0.000328 -3.144143 -15.318524 6.705835 25.443757 75.842720 26.863190 0.664001 -10.038347 -5.018359 0.022176 0.126655 0.012692
-56.666604 61.874259 15.009578 174.803941 -49.708601 -0.894299 4.633125 26.901204 1.391159 0.724999 4.666541 0.094971 1.143284 7.384063 0.184086 3.608254 21.919659 1.021781 1.134592 18.116290 3.511508 0.941136 -2.123042 6.106429 6.021224 7.211494 5.860533 1.893218 -12.830636 -13.821818 -109.683147 -66.032686 138.839958 13.572897 14.815726 -9.233163 -12.031632 4.664173 -1.841206 -5.211665 -12.635608 18.533497 85.126443 -71.485865 -114.626813 11.131496 -0.138585 1.517483 -0.295360 -17.713056 -2.806100 -3.891583 63.889476 -6.862517 1.323727 -6.676646 7.398791 0.013706 -0.117818 0.000308 -3.143795 -15.316462 6.708852 25.423331 75.844940 26.842189 0.664018 -10.037638 -5.017654 0.023518 0.125364 0.014184
-56.668179 61.874367 15.009602 174.804729 -49.707870 -0.891911 4.624584 26.902781 1.386025 0.727148 4.663032 0.096616 1.138240 7.388268 0.182486 3.603048 21.920690 1.020526 1.136162 18.111671 3.500413 0.946658 -2.139118 6.070942 6.044189 7.194917 5.852505 1.871089 -12.824524 -13.815723 -109.660075 -66.033159 138.827647 13.568820 14.812816 -9.226554 -12.036078 4.649530 -1.836122 -5.195445 -12.625982 18.524760 85.140733 -71.482029 -114.645153 11.134112 -0.136686 1.524992 -0.295501 -17.713599 -2.808658 -3.894675 63.889181 -6.865468 1.320570 -6.673942 7.398762 0.017439 -0.116561 0.001790 -3.141384 -15.318124 6.704208 25.422431 75.845663 26.841061 0.669069 -10.035125 -5.014683 0.018953 0.123305 0.012152
-56.670100 61.874284 15.009742 174.805137 -49.705819 -0.888878 4.618331 26.902884 1.380628 0.724673 4.663769 0.096409 1.133368 7.390845 0.183213 3.596355 21.922473 1.018597 1.141516 18.105587 3.489344 0.953371 -2.141377 6.065732 6.066446 7.166312 5.841890 1.856231 -12.821602 -13.810844 -109.606058 -66.030956 138.790279 13.565921 14.814257 -9.230273 -12.055697 4.620974 -1.823603 -5.164171 -12.603941 18.508057 85.158627 -71.477184 -114.660783 11.139269 -0.136505 1.532702 -0.293926 -17.715870 -2.812397 -3.894404 63.889061 -6.865324 1.319541 -6.669778 7.399620 0.017217 -0.115614 0.003494 -3.136879 -15.320823 6.700317 25.415728 75.845794 26.833213 0.674239 -10.034782 -5.010728 0.014547 0.123546 0.011015
-56.672818 61.874286 15.009733 174.808735 -49.704515 -0.885086 4.607110 26.904582 1.371376 0.718470 4.666814 0.096951 1.133623 7.391275 0.182299 3.589297 21.924817 1.016366 1.151734 18.098428 3.480886 0.955158 -2.153979 6.040891 6.081936 7.156469 5.833471 1.856740 -12.828741 -13.811802 -109.583420 -66.032853 138.766628 13.556689 14.809813 -9.226299 -12.059234 4.604364 -1.818396 -5.146062 -12.596183 18.498525 85.163907 -71.474021 -114.666833 11.141817 -0.131917 1.531677 -0.291641 -17.718292 -2.818750 -3.893925 63.892071 -6.866635 1.315353 -6.665509 7.403969 0.018599 -0.117079 0.004097 -3.134072 -15.323525 6.691628 25.413280 75.845146 26.829945 0.679623 -10.031710 -5.007510 0.010183 0.122130 0.009969
-56.675109 61.874490 15.009650 174.809861 -49.704724 -0.883542 4.597588 26.907627 1.367032 0.716876 4.667670 0.096633 1.136850 7.390929 0.180546 3.585953 21.926014 1.015320 1.147187 18.094677 3.473084 0.967856 -2.178031 5.994020 6.093664 7.136453 5.826724 1.853439 -12.822153 -13.807566 -109.552853 -66.032789 138.740252 13.552880 14.807369 -9.229671 -12.070514 4.591537 -1.807698 -5.125079 -12.589121 18.485090 85.165537 -71.471724 -114.668821 11.139313 -0.131966 1.530918 -0.288776 -17.718794 -2.820768 -3.898517 63.893267 -6.871390 1.312690 -6.659441 7.408315 0.021708 -0.121127 0.003256 -3.133968 -15.321217 6.691194 25.396888 75.842755 26.809303 0.681120 -10.032586 -5.009179 0.010108 0.124369 0.010548
-56.677633 61.874760 15.009596 174.814331 -49.705174 -0.884904 4.587172 26.912966 1.361758 0.715931 4.668611 0.096474 1.139395 7.388877 0.180272 3.583300 21.927160 1.014757 1.134188 18.091564 3.459143 0.987192 -2.189690 5.974758 6.109173 7.107077 5.816351 1.843032 -12.803804 -13.797904 -109.513252 -66.020031 138.714819 13.564826 14.813258 -9.241893 -12.080535 4.576426 -1.794947 -5.104776 -12.579771 18.470189 85.177602 -71.459239 -114.685268 11.131465 -0.120255 1.536943 -0.290070 -17.718973 -2.822512 -3.883828 63.896210 -6.862633 1.311016 -6.654144 7.416926 0.017737 -0.126566 -0.000233 -3.137070 -15.320299 6.691799 25.391497 75.840967 26.800046 0.676608 -10.030088 -5.014343 0.012452 0.123313 0.016154
-56.679672 61.874671 15.010013 174.820704 -49.702897 -0.892743 4.577534 26.913765 1.359881 0.706477 4.671258 0.096456 1.145149 7.386803 0.179088 3.576403 21.928180 1.013019 1.142139 18.086903 3.451626 0.996203 -2.200739 5.950079 6.126805 7.093499 5.809088 1.840286 -12.796132 -13.794754 -109.496017 -66.015368 138.709315 13.565559 14.814657 -9.250799 -12.077929 4.560403 -1.783508 -5.089431 -12.575567 18.457570 85.176253 -71.443724 -114.694781 11.127935 -0.113517 1.549494 -0.290450 -17.720822 -2.819887 -3.886978 63.896091 -6.863901 1.310513 -6.651714 7.419319 0.021364 -0.121056 0.002784 -3.138923 -15.323341 6.698722 25.382171 75.840211 26.789971 0.668278 -10.028762 -5.013857 0.017270 0.122952 0.017012
-56.682786 61.874833 15.010322 174.829536 -49.702052 -0.897949 4.561850 26.916300 1.354726 0.711969 4.669170 0.095701 1.122246 7.395997 0.178462 3.565229 21.928058 1.005979 1.164043 18.077851 3.438540 1.008438 -2.212599 5.923118 6.158836 7.082342 5.797344 1.838295 -12.796719 -13.791020 -109.482385 -66.016099 138.703818 13.543022 14.815577 -9.253837 -12.051930 4.544237 -1.783859 -5.081797 -12.576478 18.447594 85.163731 -71.425313 -114.689624 11.123538 -0.092574 1.556220 -0.287903 -17.720088 -2.824425 -3.888139 63.895211 -6.860095 1.309127 -6.650597 7.421395 0.021974 -0.119533 0.003507 -3.139337 -15.325021 6.696497 25.378874 75.839252 26.789218 0.663790 -10.027936 -5.013825 0.020123 0.122913 0.018328
-56.684969 61.874624 15.011232 174.839838 -49.698129 -0.912081 4.550482 26.916329 1.356366 0.710584 4.669896 0.095621 1.119766 7.396721 0.180479 3.566418 21.926637 1.002628 1.162280 18.075241 3.429586 1.023126 -2.228966 5.897904 6.171028 7.064070 5.788300 1.834117 -12.785342 -13.781534 -109.475777 -66.015711 138.700886 13.533393 14.815182 -9.258849 -12.051235 4.534757 -1.778301 -5.073656 -12.574704 18.439653 85.155137 -71.419077 -114.684729 11.124969 -0.088044 1.556592 -0.294280 -17.721867 -2.815456 -3.888903 63.890119 -6.865997 1.310890 -6.645850 7.425435 0.017278 -0.120935 0.005157 -3.145245 -15.329958 6.704395 25.369971 75.839994 26.779934 0.663977 -10.028505 -5.015043 0.019603 0.124682 0.021145
